<svg width="150" height="93" viewBox="0 0 150 93" fill="none" xmlns="http://www.w3.org/2000/svg" role="img" aria-labelledby="title desc">
  <title id="title">ISPA logo</title>
  <desc id="desc">Blue outlined hexagon with a red dot and the text ispa.</desc>
  <rect width="150" height="93" fill="#F6F4F2"/>
  <path d="M23 65V26L60 4L106 31" stroke="#29479B" stroke-width="7" stroke-linecap="round" stroke-linejoin="round"/>
  <path d="M23 65L55 84H108" stroke="#29479B" stroke-width="7" stroke-linecap="round" stroke-linejoin="round"/>
  <circle cx="56" cy="23" r="6" fill="#D82D3A"/>
  <path d="M47.458 69.912V30.696H58.418V69.912H47.458ZM52.906 25.664C51.1573 25.664 49.7493 25.1733 48.682 24.192C47.6573 23.168 47.145 21.9307 47.145 20.48C47.145 18.9867 47.6573 17.7493 48.682 16.768C49.7493 15.7867 51.1573 15.296 52.906 15.296C54.6547 15.296 56.0413 15.7867 57.066 16.768C58.1333 17.7067 58.666 18.9013 58.664 20.352C58.664 21.9307 58.1333 23.2533 57.072 24.32C56.0533 25.216 54.6647 25.664 52.906 25.664ZM77.2461 70.488C74.7715 70.488 72.5315 70.1893 70.5261 69.592C68.5635 68.952 66.9855 68.1413 65.7921 67.16L69.3761 59.224C70.4835 60.0347 71.8055 60.7173 73.3421 61.272C74.9215 61.784 76.5015 62.04 78.0821 62.04C79.7895 62.04 81.0275 61.848 81.7961 61.464C82.6068 61.0373 83.0121 60.44 83.0121 59.672C83.0121 59.032 82.6708 58.5627 81.9881 58.264C81.3481 57.9227 80.4735 57.688 79.3641 57.56C78.2548 57.3893 77.0195 57.2187 75.6581 57.048C74.3395 56.8773 72.9995 56.6 71.6381 56.216C70.3195 55.832 69.1055 55.256 67.9961 54.488C66.8868 53.72 65.9908 52.696 65.3081 51.416C64.6681 50.136 64.3481 48.5147 64.3481 46.552C64.3481 44.4187 64.9455 42.584 66.1401 41.048C67.3775 39.4693 69.1261 38.2533 71.3861 37.4C73.6888 36.504 76.4195 36.056 79.5781 36.056C81.6688 36.056 83.7595 36.2693 85.8501 36.696C87.9408 37.1227 89.6675 37.7627 91.0301 38.616L87.4461 46.488C86.0835 45.6773 84.7215 45.144 83.3601 44.888C82.0415 44.5893 80.7435 44.44 79.4661 44.44C77.8448 44.44 76.6068 44.6533 75.7521 45.08C74.9408 45.5067 74.5355 46.104 74.5361 46.872C74.5361 47.5547 74.8555 48.0667 75.4941 48.408C76.1768 48.7493 77.0728 49.0053 78.1821 49.176C79.2928 49.3467 80.5068 49.5173 81.8241 49.688C83.1841 49.8587 84.5241 50.136 85.8441 50.52C87.2041 50.904 88.4381 51.48 89.5461 52.248C90.6541 52.9733 91.5288 53.976 92.1701 55.256C92.8528 56.4933 93.1941 58.0933 93.1941 60.056C93.1941 62.1467 92.5755 63.9813 91.3381 65.56C90.1435 67.096 88.3721 68.2907 86.0241 69.144C83.7195 70.04 80.7935 70.488 77.2461 70.488ZM97.499 82.808V36.632H107.947V40.792L107.819 46.424L108.395 52.056V82.808H97.499ZM117.291 70.488C114.775 70.488 112.601 69.9333 110.771 68.824C108.98 67.672 107.593 65.944 106.611 63.64C105.673 61.336 105.203 58.4347 105.203 54.936C105.203 51.3947 105.651 48.4933 106.547 46.232C107.487 43.928 108.852 42.2427 110.643 41.176C112.435 40.0667 114.652 39.512 117.291 39.512C120.193 39.512 122.815 40.1733 125.163 41.496C127.552 42.776 129.429 44.6107 130.795 47C132.203 49.3467 132.907 52.0027 132.907 54.968C132.907 57.9333 132.203 60.6107 130.795 63C129.429 65.3893 127.552 67.2453 125.163 68.568C122.815 69.848 120.193 70.488 117.291 70.488ZM115.371 61.592C116.609 61.592 117.697 61.3147 118.635 60.76C119.617 60.2053 120.385 59.3947 120.939 58.328C121.537 57.2187 121.835 55.7653 121.835 53.968C121.835 52.1707 121.537 50.7387 120.939 49.672C120.385 48.6053 119.617 47.816 118.635 47.304C117.697 46.7493 116.609 46.472 115.371 46.472C114.134 46.472 113.025 46.7493 112.043 47.304C111.105 47.816 110.337 48.6053 109.739 49.672C109.185 50.7387 108.907 52.1707 108.907 53.968C108.907 55.7653 109.185 57.2187 109.739 58.328C110.337 59.3947 111.105 60.2053 112.043 60.76C113.025 61.3147 114.134 61.592 115.371 61.592Z" fill="#29479B"/>
</svg>
